# xmcd CD database file
#
# Track frame offsets:
#	150
#	14494
#	27663
#	41952
#	56730
#	74815
#	95226
#	104212
#	123529
#	138779
#	156940
#	173925
#	188728
#
# Disc length: 2754 seconds
#
# Revision: 0
# Processed by: cddbd v1.5.2PL0 Copyright (c) Steve Scherf et al.
# Submitted via: CDex 1.70beta2
#
DISCID=cf0ac00d
DTITLE=Kate and Hollis -  Cdn. - ON - OVM - Sugar Babe
DYEAR=2007
DGENRE=Country
TTITLE0=Sugar Babe
TTITLE1=Freedom Road
TTITLE2=Emily
TTITLE3=Walk Away
TTITLE4=Just Like My Son 
TTITLE5=Jennie Wore White
TTITLE6=Kur Plop
TTITLE7=Child Child
TTITLE8=Pippa's Refrain
TTITLE9=A Soldier's Fall
TTITLE10=The Wagoner's Lad
TTITLE11=The Hill
TTITLE12=Skinny Legs
EXTD=YEAR: 2007
EXTT0=
EXTT1=
EXTT2=
EXTT3=
EXTT4=
EXTT5=
EXTT6=
EXTT7=
EXTT8=
EXTT9=
EXTT10=
EXTT11=
EXTT12=
PLAYORDER=
